<?xml version="1.0" encoding="UTF-8"?>
<svg xmlns="http://www.w3.org/2000/svg" width="50" height="50" viewBox="0 0 50 50">
<rect x="9" y="15" width="1" height="1" fill="white"/><rect x="10" y="15" width="1" height="1" fill="white"/><rect x="11" y="15" width="1" height="1" fill="white"/><rect x="12" y="15" width="1" height="1" fill="white"/><rect x="13" y="15" width="1" height="1" fill="white"/><rect x="36" y="15" width="1" height="1" fill="white"/><rect x="37" y="15" width="1" height="1" fill="white"/><rect x="38" y="15" width="1" height="1" fill="white"/><rect x="39" y="15" width="1" height="1" fill="white"/><rect x="7" y="16" width="1" height="1" fill="white"/><rect x="8" y="16" width="1" height="1" fill="white"/><rect x="9" y="16" width="1" height="1" fill="white"/><rect x="10" y="16" width="1" height="1" fill="white"/><rect x="11" y="16" width="1" height="1" fill="white"/><rect x="12" y="16" width="1" height="1" fill="white"/><rect x="14" y="16" width="1" height="1" fill="white"/><rect x="15" y="16" width="1" height="1" fill="white"/><rect x="17" y="16" width="1" height="1" fill="white"/><rect x="18" y="16" width="1" height="1" fill="white"/><rect x="31" y="16" width="1" height="1" fill="white"/><rect x="32" y="16" width="1" height="1" fill="white"/><rect x="34" y="16" width="1" height="1" fill="white"/><rect x="35" y="16" width="1" height="1" fill="white"/><rect x="36" y="16" width="1" height="1" fill="white"/><rect x="37" y="16" width="1" height="1" fill="white"/><rect x="38" y="16" width="1" height="1" fill="white"/><rect x="39" y="16" width="1" height="1" fill="white"/><rect x="40" y="16" width="1" height="1" fill="white"/><rect x="41" y="16" width="1" height="1" fill="white"/><rect x="6" y="17" width="1" height="1" fill="white"/><rect x="7" y="17" width="1" height="1" fill="white"/><rect x="8" y="17" width="1" height="1" fill="white"/><rect x="9" y="17" width="1" height="1" fill="white"/><rect x="10" y="17" width="1" height="1" fill="white"/><rect x="11" y="17" width="1" height="1" fill="white"/><rect x="12" y="17" width="1" height="1" fill="white"/><rect x="14" y="17" width="1" height="1" fill="white"/><rect x="16" y="17" width="1" height="1" fill="white"/><rect x="17" y="17" width="1" height="1" fill="white"/><rect x="18" y="17" width="1" height="1" fill="white"/><rect x="19" y="17" width="1" height="1" fill="white"/><rect x="20" y="17" width="1" height="1" fill="white"/><rect x="21" y="17" width="1" height="1" fill="white"/><rect x="22" y="17" width="1" height="1" fill="white"/><rect x="23" y="17" width="1" height="1" fill="white"/><rect x="26" y="17" width="1" height="1" fill="white"/><rect x="27" y="17" width="1" height="1" fill="white"/><rect x="28" y="17" width="1" height="1" fill="white"/><rect x="29" y="17" width="1" height="1" fill="white"/><rect x="30" y="17" width="1" height="1" fill="white"/><rect x="31" y="17" width="1" height="1" fill="white"/><rect x="32" y="17" width="1" height="1" fill="white"/><rect x="33" y="17" width="1" height="1" fill="white"/><rect x="34" y="17" width="1" height="1" fill="white"/><rect x="35" y="17" width="1" height="1" fill="white"/><rect x="37" y="17" width="1" height="1" fill="white"/><rect x="38" y="17" width="1" height="1" fill="white"/><rect x="39" y="17" width="1" height="1" fill="white"/><rect x="40" y="17" width="1" height="1" fill="white"/><rect x="41" y="17" width="1" height="1" fill="white"/><rect x="42" y="17" width="1" height="1" fill="white"/><rect x="43" y="17" width="1" height="1" fill="white"/><rect x="6" y="18" width="1" height="1" fill="white"/><rect x="7" y="18" width="1" height="1" fill="white"/><rect x="8" y="18" width="1" height="1" fill="white"/><rect x="9" y="18" width="1" height="1" fill="white"/><rect x="10" y="18" width="1" height="1" fill="white"/><rect x="11" y="18" width="1" height="1" fill="white"/><rect x="13" y="18" width="1" height="1" fill="white"/><rect x="14" y="18" width="1" height="1" fill="white"/><rect x="16" y="18" width="1" height="1" fill="white"/><rect x="17" y="18" width="1" height="1" fill="white"/><rect x="18" y="18" width="1" height="1" fill="white"/><rect x="19" y="18" width="1" height="1" fill="white"/><rect x="20" y="18" width="1" height="1" fill="white"/><rect x="21" y="18" width="1" height="1" fill="white"/><rect x="22" y="18" width="1" height="1" fill="white"/><rect x="23" y="18" width="1" height="1" fill="white"/><rect x="26" y="18" width="1" height="1" fill="white"/><rect x="27" y="18" width="1" height="1" fill="white"/><rect x="28" y="18" width="1" height="1" fill="white"/><rect x="29" y="18" width="1" height="1" fill="white"/><rect x="30" y="18" width="1" height="1" fill="white"/><rect x="31" y="18" width="1" height="1" fill="white"/><rect x="32" y="18" width="1" height="1" fill="white"/><rect x="33" y="18" width="1" height="1" fill="white"/><rect x="35" y="18" width="1" height="1" fill="white"/><rect x="36" y="18" width="1" height="1" fill="white"/><rect x="38" y="18" width="1" height="1" fill="white"/><rect x="39" y="18" width="1" height="1" fill="white"/><rect x="40" y="18" width="1" height="1" fill="white"/><rect x="41" y="18" width="1" height="1" fill="white"/><rect x="42" y="18" width="1" height="1" fill="white"/><rect x="43" y="18" width="1" height="1" fill="white"/><rect x="5" y="19" width="1" height="1" fill="white"/><rect x="6" y="19" width="1" height="1" fill="white"/><rect x="7" y="19" width="1" height="1" fill="white"/><rect x="8" y="19" width="1" height="1" fill="white"/><rect x="9" y="19" width="1" height="1" fill="white"/><rect x="10" y="19" width="1" height="1" fill="white"/><rect x="12" y="19" width="1" height="1" fill="white"/><rect x="13" y="19" width="1" height="1" fill="white"/><rect x="14" y="19" width="1" height="1" fill="white"/><rect x="15" y="19" width="1" height="1" fill="white"/><rect x="16" y="19" width="1" height="1" fill="white"/><rect x="17" y="19" width="1" height="1" fill="white"/><rect x="18" y="19" width="1" height="1" fill="white"/><rect x="19" y="19" width="1" height="1" fill="white"/><rect x="20" y="19" width="1" height="1" fill="white"/><rect x="21" y="19" width="1" height="1" fill="white"/><rect x="22" y="19" width="1" height="1" fill="white"/><rect x="23" y="19" width="1" height="1" fill="white"/><rect x="24" y="19" width="1" height="1" fill="white"/><rect x="25" y="19" width="1" height="1" fill="white"/><rect x="26" y="19" width="1" height="1" fill="white"/><rect x="27" y="19" width="1" height="1" fill="white"/><rect x="28" y="19" width="1" height="1" fill="white"/><rect x="29" y="19" width="1" height="1" fill="white"/><rect x="30" y="19" width="1" height="1" fill="white"/><rect x="31" y="19" width="1" height="1" fill="white"/><rect x="32" y="19" width="1" height="1" fill="white"/><rect x="33" y="19" width="1" height="1" fill="white"/><rect x="34" y="19" width="1" height="1" fill="white"/><rect x="35" y="19" width="1" height="1" fill="white"/><rect x="36" y="19" width="1" height="1" fill="white"/><rect x="37" y="19" width="1" height="1" fill="white"/><rect x="39" y="19" width="1" height="1" fill="white"/><rect x="40" y="19" width="1" height="1" fill="white"/><rect x="41" y="19" width="1" height="1" fill="white"/><rect x="42" y="19" width="1" height="1" fill="white"/><rect x="43" y="19" width="1" height="1" fill="white"/><rect x="44" y="19" width="1" height="1" fill="white"/><rect x="4" y="20" width="1" height="1" fill="white"/><rect x="5" y="20" width="1" height="1" fill="white"/><rect x="6" y="20" width="1" height="1" fill="white"/><rect x="7" y="20" width="1" height="1" fill="white"/><rect x="8" y="20" width="1" height="1" fill="white"/><rect x="9" y="20" width="1" height="1" fill="white"/><rect x="10" y="20" width="1" height="1" fill="white"/><rect x="12" y="20" width="1" height="1" fill="white"/><rect x="13" y="20" width="1" height="1" fill="white"/><rect x="14" y="20" width="1" height="1" fill="white"/><rect x="15" y="20" width="1" height="1" fill="white"/><rect x="16" y="20" width="1" height="1" fill="white"/><rect x="17" y="20" width="1" height="1" fill="white"/><rect x="18" y="20" width="1" height="1" fill="white"/><rect x="19" y="20" width="1" height="1" fill="white"/><rect x="20" y="20" width="1" height="1" fill="white"/><rect x="21" y="20" width="1" height="1" fill="white"/><rect x="22" y="20" width="1" height="1" fill="white"/><rect x="23" y="20" width="1" height="1" fill="white"/><rect x="24" y="20" width="1" height="1" fill="white"/><rect x="25" y="20" width="1" height="1" fill="white"/><rect x="26" y="20" width="1" height="1" fill="white"/><rect x="27" y="20" width="1" height="1" fill="white"/><rect x="28" y="20" width="1" height="1" fill="white"/><rect x="29" y="20" width="1" height="1" fill="white"/><rect x="30" y="20" width="1" height="1" fill="white"/><rect x="31" y="20" width="1" height="1" fill="white"/><rect x="32" y="20" width="1" height="1" fill="white"/><rect x="33" y="20" width="1" height="1" fill="white"/><rect x="34" y="20" width="1" height="1" fill="white"/><rect x="35" y="20" width="1" height="1" fill="white"/><rect x="36" y="20" width="1" height="1" fill="white"/><rect x="37" y="20" width="1" height="1" fill="white"/><rect x="39" y="20" width="1" height="1" fill="white"/><rect x="40" y="20" width="1" height="1" fill="white"/><rect x="41" y="20" width="1" height="1" fill="white"/><rect x="42" y="20" width="1" height="1" fill="white"/><rect x="43" y="20" width="1" height="1" fill="white"/><rect x="44" y="20" width="1" height="1" fill="white"/><rect x="5" y="21" width="1" height="1" fill="white"/><rect x="6" y="21" width="1" height="1" fill="white"/><rect x="7" y="21" width="1" height="1" fill="white"/><rect x="8" y="21" width="1" height="1" fill="white"/><rect x="9" y="21" width="1" height="1" fill="white"/><rect x="10" y="21" width="1" height="1" fill="white"/><rect x="12" y="21" width="1" height="1" fill="white"/><rect x="13" y="21" width="1" height="1" fill="white"/><rect x="14" y="21" width="1" height="1" fill="white"/><rect x="15" y="21" width="1" height="1" fill="white"/><rect x="16" y="21" width="1" height="1" fill="white"/><rect x="17" y="21" width="1" height="1" fill="white"/><rect x="18" y="21" width="1" height="1" fill="white"/><rect x="19" y="21" width="1" height="1" fill="white"/><rect x="20" y="21" width="1" height="1" fill="white"/><rect x="21" y="21" width="1" height="1" fill="white"/><rect x="22" y="21" width="1" height="1" fill="white"/><rect x="23" y="21" width="1" height="1" fill="white"/><rect x="24" y="21" width="1" height="1" fill="white"/><rect x="25" y="21" width="1" height="1" fill="white"/><rect x="26" y="21" width="1" height="1" fill="white"/><rect x="27" y="21" width="1" height="1" fill="white"/><rect x="28" y="21" width="1" height="1" fill="white"/><rect x="29" y="21" width="1" height="1" fill="white"/><rect x="30" y="21" width="1" height="1" fill="white"/><rect x="31" y="21" width="1" height="1" fill="white"/><rect x="32" y="21" width="1" height="1" fill="white"/><rect x="33" y="21" width="1" height="1" fill="white"/><rect x="34" y="21" width="1" height="1" fill="white"/><rect x="35" y="21" width="1" height="1" fill="white"/><rect x="36" y="21" width="1" height="1" fill="white"/><rect x="37" y="21" width="1" height="1" fill="white"/><rect x="40" y="21" width="1" height="1" fill="white"/><rect x="41" y="21" width="1" height="1" fill="white"/><rect x="42" y="21" width="1" height="1" fill="white"/><rect x="43" y="21" width="1" height="1" fill="white"/><rect x="8" y="22" width="1" height="1" fill="white"/><rect x="9" y="22" width="1" height="1" fill="white"/><rect x="11" y="22" width="1" height="1" fill="white"/><rect x="12" y="22" width="1" height="1" fill="white"/><rect x="13" y="22" width="1" height="1" fill="white"/><rect x="14" y="22" width="1" height="1" fill="white"/><rect x="15" y="22" width="1" height="1" fill="white"/><rect x="16" y="22" width="1" height="1" fill="white"/><rect x="17" y="22" width="1" height="1" fill="white"/><rect x="18" y="22" width="1" height="1" fill="white"/><rect x="19" y="22" width="1" height="1" fill="white"/><rect x="20" y="22" width="1" height="1" fill="white"/><rect x="21" y="22" width="1" height="1" fill="white"/><rect x="22" y="22" width="1" height="1" fill="white"/><rect x="23" y="22" width="1" height="1" fill="white"/><rect x="24" y="22" width="1" height="1" fill="white"/><rect x="25" y="22" width="1" height="1" fill="white"/><rect x="26" y="22" width="1" height="1" fill="white"/><rect x="27" y="22" width="1" height="1" fill="white"/><rect x="28" y="22" width="1" height="1" fill="white"/><rect x="29" y="22" width="1" height="1" fill="white"/><rect x="30" y="22" width="1" height="1" fill="white"/><rect x="31" y="22" width="1" height="1" fill="white"/><rect x="32" y="22" width="1" height="1" fill="white"/><rect x="33" y="22" width="1" height="1" fill="white"/><rect x="34" y="22" width="1" height="1" fill="white"/><rect x="35" y="22" width="1" height="1" fill="white"/><rect x="36" y="22" width="1" height="1" fill="white"/><rect x="37" y="22" width="1" height="1" fill="white"/><rect x="38" y="22" width="1" height="1" fill="white"/><rect x="40" y="22" width="1" height="1" fill="white"/><rect x="41" y="22" width="1" height="1" fill="white"/><rect x="11" y="23" width="1" height="1" fill="white"/><rect x="12" y="23" width="1" height="1" fill="white"/><rect x="13" y="23" width="1" height="1" fill="white"/><rect x="14" y="23" width="1" height="1" fill="white"/><rect x="15" y="23" width="1" height="1" fill="white"/><rect x="16" y="23" width="1" height="1" fill="white"/><rect x="17" y="23" width="1" height="1" fill="white"/><rect x="18" y="23" width="1" height="1" fill="white"/><rect x="19" y="23" width="1" height="1" fill="white"/><rect x="20" y="23" width="1" height="1" fill="white"/><rect x="21" y="23" width="1" height="1" fill="white"/><rect x="22" y="23" width="1" height="1" fill="white"/><rect x="23" y="23" width="1" height="1" fill="white"/><rect x="24" y="23" width="1" height="1" fill="white"/><rect x="25" y="23" width="1" height="1" fill="white"/><rect x="26" y="23" width="1" height="1" fill="white"/><rect x="27" y="23" width="1" height="1" fill="white"/><rect x="28" y="23" width="1" height="1" fill="white"/><rect x="29" y="23" width="1" height="1" fill="white"/><rect x="30" y="23" width="1" height="1" fill="white"/><rect x="31" y="23" width="1" height="1" fill="white"/><rect x="32" y="23" width="1" height="1" fill="white"/><rect x="33" y="23" width="1" height="1" fill="white"/><rect x="34" y="23" width="1" height="1" fill="white"/><rect x="35" y="23" width="1" height="1" fill="white"/><rect x="36" y="23" width="1" height="1" fill="white"/><rect x="37" y="23" width="1" height="1" fill="white"/><rect x="38" y="23" width="1" height="1" fill="white"/><rect x="12" y="24" width="1" height="1" fill="white"/><rect x="13" y="24" width="1" height="1" fill="white"/><rect x="14" y="24" width="1" height="1" fill="white"/><rect x="15" y="24" width="1" height="1" fill="white"/><rect x="16" y="24" width="1" height="1" fill="white"/><rect x="17" y="24" width="1" height="1" fill="white"/><rect x="18" y="24" width="1" height="1" fill="white"/><rect x="19" y="24" width="1" height="1" fill="white"/><rect x="20" y="24" width="1" height="1" fill="white"/><rect x="21" y="24" width="1" height="1" fill="white"/><rect x="22" y="24" width="1" height="1" fill="white"/><rect x="23" y="24" width="1" height="1" fill="white"/><rect x="24" y="24" width="1" height="1" fill="white"/><rect x="25" y="24" width="1" height="1" fill="white"/><rect x="26" y="24" width="1" height="1" fill="white"/><rect x="27" y="24" width="1" height="1" fill="white"/><rect x="28" y="24" width="1" height="1" fill="white"/><rect x="29" y="24" width="1" height="1" fill="white"/><rect x="30" y="24" width="1" height="1" fill="white"/><rect x="31" y="24" width="1" height="1" fill="white"/><rect x="32" y="24" width="1" height="1" fill="white"/><rect x="33" y="24" width="1" height="1" fill="white"/><rect x="34" y="24" width="1" height="1" fill="white"/><rect x="35" y="24" width="1" height="1" fill="white"/><rect x="36" y="24" width="1" height="1" fill="white"/><rect x="37" y="24" width="1" height="1" fill="white"/><rect x="13" y="25" width="1" height="1" fill="white"/><rect x="14" y="25" width="1" height="1" fill="white"/><rect x="15" y="25" width="1" height="1" fill="white"/><rect x="16" y="25" width="1" height="1" fill="white"/><rect x="17" y="25" width="1" height="1" fill="white"/><rect x="18" y="25" width="1" height="1" fill="white"/><rect x="19" y="25" width="1" height="1" fill="white"/><rect x="20" y="25" width="1" height="1" fill="white"/><rect x="21" y="25" width="1" height="1" fill="white"/><rect x="22" y="25" width="1" height="1" fill="white"/><rect x="23" y="25" width="1" height="1" fill="white"/><rect x="26" y="25" width="1" height="1" fill="white"/><rect x="27" y="25" width="1" height="1" fill="white"/><rect x="28" y="25" width="1" height="1" fill="white"/><rect x="29" y="25" width="1" height="1" fill="white"/><rect x="30" y="25" width="1" height="1" fill="white"/><rect x="31" y="25" width="1" height="1" fill="white"/><rect x="32" y="25" width="1" height="1" fill="white"/><rect x="33" y="25" width="1" height="1" fill="white"/><rect x="34" y="25" width="1" height="1" fill="white"/><rect x="35" y="25" width="1" height="1" fill="white"/><rect x="36" y="25" width="1" height="1" fill="white"/><rect x="37" y="25" width="1" height="1" fill="white"/><rect x="14" y="26" width="1" height="1" fill="white"/><rect x="15" y="26" width="1" height="1" fill="white"/><rect x="16" y="26" width="1" height="1" fill="white"/><rect x="17" y="26" width="1" height="1" fill="white"/><rect x="18" y="26" width="1" height="1" fill="white"/><rect x="19" y="26" width="1" height="1" fill="white"/><rect x="20" y="26" width="1" height="1" fill="white"/><rect x="21" y="26" width="1" height="1" fill="white"/><rect x="24" y="26" width="1" height="1" fill="white"/><rect x="25" y="26" width="1" height="1" fill="white"/><rect x="28" y="26" width="1" height="1" fill="white"/><rect x="29" y="26" width="1" height="1" fill="white"/><rect x="30" y="26" width="1" height="1" fill="white"/><rect x="31" y="26" width="1" height="1" fill="white"/><rect x="32" y="26" width="1" height="1" fill="white"/><rect x="33" y="26" width="1" height="1" fill="white"/><rect x="34" y="26" width="1" height="1" fill="white"/><rect x="35" y="26" width="1" height="1" fill="white"/><rect x="36" y="26" width="1" height="1" fill="white"/><rect x="14" y="27" width="1" height="1" fill="white"/><rect x="15" y="27" width="1" height="1" fill="white"/><rect x="22" y="27" width="1" height="1" fill="white"/><rect x="23" y="27" width="1" height="1" fill="white"/><rect x="24" y="27" width="1" height="1" fill="white"/><rect x="25" y="27" width="1" height="1" fill="white"/><rect x="26" y="27" width="1" height="1" fill="white"/><rect x="27" y="27" width="1" height="1" fill="white"/><rect x="33" y="27" width="1" height="1" fill="white"/><rect x="34" y="27" width="1" height="1" fill="white"/><rect x="35" y="27" width="1" height="1" fill="white"/><rect x="16" y="28" width="1" height="1" fill="white"/><rect x="17" y="28" width="1" height="1" fill="white"/><rect x="18" y="28" width="1" height="1" fill="white"/><rect x="19" y="28" width="1" height="1" fill="white"/><rect x="20" y="28" width="1" height="1" fill="white"/><rect x="21" y="28" width="1" height="1" fill="white"/><rect x="22" y="28" width="1" height="1" fill="white"/><rect x="23" y="28" width="1" height="1" fill="white"/><rect x="24" y="28" width="1" height="1" fill="white"/><rect x="25" y="28" width="1" height="1" fill="white"/><rect x="26" y="28" width="1" height="1" fill="white"/><rect x="27" y="28" width="1" height="1" fill="white"/><rect x="28" y="28" width="1" height="1" fill="white"/><rect x="29" y="28" width="1" height="1" fill="white"/><rect x="30" y="28" width="1" height="1" fill="white"/><rect x="31" y="28" width="1" height="1" fill="white"/><rect x="32" y="28" width="1" height="1" fill="white"/><rect x="33" y="28" width="1" height="1" fill="white"/><rect x="16" y="29" width="1" height="1" fill="white"/><rect x="17" y="29" width="1" height="1" fill="white"/><rect x="18" y="29" width="1" height="1" fill="white"/><rect x="19" y="29" width="1" height="1" fill="white"/><rect x="20" y="29" width="1" height="1" fill="white"/><rect x="21" y="29" width="1" height="1" fill="white"/><rect x="22" y="29" width="1" height="1" fill="white"/><rect x="23" y="29" width="1" height="1" fill="white"/><rect x="24" y="29" width="1" height="1" fill="white"/><rect x="25" y="29" width="1" height="1" fill="white"/><rect x="26" y="29" width="1" height="1" fill="white"/><rect x="27" y="29" width="1" height="1" fill="white"/><rect x="28" y="29" width="1" height="1" fill="white"/><rect x="29" y="29" width="1" height="1" fill="white"/><rect x="30" y="29" width="1" height="1" fill="white"/><rect x="31" y="29" width="1" height="1" fill="white"/><rect x="32" y="29" width="1" height="1" fill="white"/><rect x="33" y="29" width="1" height="1" fill="white"/><rect x="17" y="30" width="1" height="1" fill="white"/><rect x="18" y="30" width="1" height="1" fill="white"/><rect x="19" y="30" width="1" height="1" fill="white"/><rect x="20" y="30" width="1" height="1" fill="white"/><rect x="21" y="30" width="1" height="1" fill="white"/><rect x="22" y="30" width="1" height="1" fill="white"/><rect x="23" y="30" width="1" height="1" fill="white"/><rect x="24" y="30" width="1" height="1" fill="white"/><rect x="25" y="30" width="1" height="1" fill="white"/><rect x="26" y="30" width="1" height="1" fill="white"/><rect x="27" y="30" width="1" height="1" fill="white"/><rect x="28" y="30" width="1" height="1" fill="white"/><rect x="29" y="30" width="1" height="1" fill="white"/><rect x="30" y="30" width="1" height="1" fill="white"/><rect x="31" y="30" width="1" height="1" fill="white"/><rect x="32" y="30" width="1" height="1" fill="white"/><rect x="18" y="31" width="1" height="1" fill="white"/><rect x="19" y="31" width="1" height="1" fill="white"/><rect x="20" y="31" width="1" height="1" fill="white"/><rect x="21" y="31" width="1" height="1" fill="white"/><rect x="22" y="31" width="1" height="1" fill="white"/><rect x="23" y="31" width="1" height="1" fill="white"/><rect x="24" y="31" width="1" height="1" fill="white"/><rect x="25" y="31" width="1" height="1" fill="white"/><rect x="26" y="31" width="1" height="1" fill="white"/><rect x="27" y="31" width="1" height="1" fill="white"/><rect x="28" y="31" width="1" height="1" fill="white"/><rect x="29" y="31" width="1" height="1" fill="white"/><rect x="30" y="31" width="1" height="1" fill="white"/><rect x="31" y="31" width="1" height="1" fill="white"/><rect x="20" y="32" width="1" height="1" fill="white"/><rect x="21" y="32" width="1" height="1" fill="white"/><rect x="22" y="32" width="1" height="1" fill="white"/><rect x="23" y="32" width="1" height="1" fill="white"/><rect x="24" y="32" width="1" height="1" fill="white"/><rect x="25" y="32" width="1" height="1" fill="white"/><rect x="26" y="32" width="1" height="1" fill="white"/><rect x="27" y="32" width="1" height="1" fill="white"/><rect x="28" y="32" width="1" height="1" fill="white"/><rect x="29" y="32" width="1" height="1" fill="white"/><rect x="21" y="33" width="1" height="1" fill="white"/><rect x="22" y="33" width="1" height="1" fill="white"/><rect x="23" y="33" width="1" height="1" fill="white"/><rect x="24" y="33" width="1" height="1" fill="white"/><rect x="25" y="33" width="1" height="1" fill="white"/><rect x="26" y="33" width="1" height="1" fill="white"/><rect x="27" y="33" width="1" height="1" fill="white"/><rect x="28" y="33" width="1" height="1" fill="white"/><rect x="23" y="34" width="1" height="1" fill="white"/><rect x="24" y="34" width="1" height="1" fill="white"/><rect x="25" y="34" width="1" height="1" fill="white"/><rect x="26" y="34" width="1" height="1" fill="white"/>
</svg>