<?xml version="1.0" encoding="UTF-8"?>
<svg xmlns="http://www.w3.org/2000/svg" width="50" height="50" viewBox="0 0 50 50">
<rect x="21" y="6" width="1" height="1" fill="white"/><rect x="22" y="6" width="1" height="1" fill="white"/><rect x="23" y="6" width="1" height="1" fill="white"/><rect x="24" y="6" width="1" height="1" fill="white"/><rect x="25" y="6" width="1" height="1" fill="white"/><rect x="26" y="6" width="1" height="1" fill="white"/><rect x="27" y="6" width="1" height="1" fill="white"/><rect x="28" y="6" width="1" height="1" fill="white"/><rect x="17" y="7" width="1" height="1" fill="white"/><rect x="18" y="7" width="1" height="1" fill="white"/><rect x="19" y="7" width="1" height="1" fill="white"/><rect x="20" y="7" width="1" height="1" fill="white"/><rect x="21" y="7" width="1" height="1" fill="white"/><rect x="22" y="7" width="1" height="1" fill="white"/><rect x="23" y="7" width="1" height="1" fill="white"/><rect x="26" y="7" width="1" height="1" fill="white"/><rect x="27" y="7" width="1" height="1" fill="white"/><rect x="28" y="7" width="1" height="1" fill="white"/><rect x="29" y="7" width="1" height="1" fill="white"/><rect x="30" y="7" width="1" height="1" fill="white"/><rect x="31" y="7" width="1" height="1" fill="white"/><rect x="32" y="7" width="1" height="1" fill="white"/><rect x="15" y="8" width="1" height="1" fill="white"/><rect x="16" y="8" width="1" height="1" fill="white"/><rect x="17" y="8" width="1" height="1" fill="white"/><rect x="18" y="8" width="1" height="1" fill="white"/><rect x="19" y="8" width="1" height="1" fill="white"/><rect x="20" y="8" width="1" height="1" fill="white"/><rect x="21" y="8" width="1" height="1" fill="white"/><rect x="22" y="8" width="1" height="1" fill="white"/><rect x="27" y="8" width="1" height="1" fill="white"/><rect x="28" y="8" width="1" height="1" fill="white"/><rect x="29" y="8" width="1" height="1" fill="white"/><rect x="30" y="8" width="1" height="1" fill="white"/><rect x="31" y="8" width="1" height="1" fill="white"/><rect x="32" y="8" width="1" height="1" fill="white"/><rect x="33" y="8" width="1" height="1" fill="white"/><rect x="34" y="8" width="1" height="1" fill="white"/><rect x="14" y="9" width="1" height="1" fill="white"/><rect x="15" y="9" width="1" height="1" fill="white"/><rect x="16" y="9" width="1" height="1" fill="white"/><rect x="17" y="9" width="1" height="1" fill="white"/><rect x="18" y="9" width="1" height="1" fill="white"/><rect x="19" y="9" width="1" height="1" fill="white"/><rect x="20" y="9" width="1" height="1" fill="white"/><rect x="21" y="9" width="1" height="1" fill="white"/><rect x="28" y="9" width="1" height="1" fill="white"/><rect x="29" y="9" width="1" height="1" fill="white"/><rect x="30" y="9" width="1" height="1" fill="white"/><rect x="31" y="9" width="1" height="1" fill="white"/><rect x="32" y="9" width="1" height="1" fill="white"/><rect x="33" y="9" width="1" height="1" fill="white"/><rect x="34" y="9" width="1" height="1" fill="white"/><rect x="35" y="9" width="1" height="1" fill="white"/><rect x="36" y="9" width="1" height="1" fill="white"/><rect x="12" y="10" width="1" height="1" fill="white"/><rect x="13" y="10" width="1" height="1" fill="white"/><rect x="14" y="10" width="1" height="1" fill="white"/><rect x="15" y="10" width="1" height="1" fill="white"/><rect x="16" y="10" width="1" height="1" fill="white"/><rect x="17" y="10" width="1" height="1" fill="white"/><rect x="18" y="10" width="1" height="1" fill="white"/><rect x="19" y="10" width="1" height="1" fill="white"/><rect x="20" y="10" width="1" height="1" fill="white"/><rect x="30" y="10" width="1" height="1" fill="white"/><rect x="31" y="10" width="1" height="1" fill="white"/><rect x="32" y="10" width="1" height="1" fill="white"/><rect x="33" y="10" width="1" height="1" fill="white"/><rect x="34" y="10" width="1" height="1" fill="white"/><rect x="35" y="10" width="1" height="1" fill="white"/><rect x="36" y="10" width="1" height="1" fill="white"/><rect x="37" y="10" width="1" height="1" fill="white"/><rect x="11" y="11" width="1" height="1" fill="white"/><rect x="12" y="11" width="1" height="1" fill="white"/><rect x="13" y="11" width="1" height="1" fill="white"/><rect x="14" y="11" width="1" height="1" fill="white"/><rect x="15" y="11" width="1" height="1" fill="white"/><rect x="16" y="11" width="1" height="1" fill="white"/><rect x="17" y="11" width="1" height="1" fill="white"/><rect x="32" y="11" width="1" height="1" fill="white"/><rect x="33" y="11" width="1" height="1" fill="white"/><rect x="34" y="11" width="1" height="1" fill="white"/><rect x="35" y="11" width="1" height="1" fill="white"/><rect x="36" y="11" width="1" height="1" fill="white"/><rect x="37" y="11" width="1" height="1" fill="white"/><rect x="38" y="11" width="1" height="1" fill="white"/><rect x="10" y="12" width="1" height="1" fill="white"/><rect x="11" y="12" width="1" height="1" fill="white"/><rect x="12" y="12" width="1" height="1" fill="white"/><rect x="13" y="12" width="1" height="1" fill="white"/><rect x="14" y="12" width="1" height="1" fill="white"/><rect x="15" y="12" width="1" height="1" fill="white"/><rect x="19" y="12" width="1" height="1" fill="white"/><rect x="20" y="12" width="1" height="1" fill="white"/><rect x="21" y="12" width="1" height="1" fill="white"/><rect x="22" y="12" width="1" height="1" fill="white"/><rect x="23" y="12" width="1" height="1" fill="white"/><rect x="26" y="12" width="1" height="1" fill="white"/><rect x="27" y="12" width="1" height="1" fill="white"/><rect x="28" y="12" width="1" height="1" fill="white"/><rect x="29" y="12" width="1" height="1" fill="white"/><rect x="30" y="12" width="1" height="1" fill="white"/><rect x="34" y="12" width="1" height="1" fill="white"/><rect x="35" y="12" width="1" height="1" fill="white"/><rect x="36" y="12" width="1" height="1" fill="white"/><rect x="37" y="12" width="1" height="1" fill="white"/><rect x="38" y="12" width="1" height="1" fill="white"/><rect x="39" y="12" width="1" height="1" fill="white"/><rect x="9" y="13" width="1" height="1" fill="white"/><rect x="10" y="13" width="1" height="1" fill="white"/><rect x="11" y="13" width="1" height="1" fill="white"/><rect x="12" y="13" width="1" height="1" fill="white"/><rect x="13" y="13" width="1" height="1" fill="white"/><rect x="14" y="13" width="1" height="1" fill="white"/><rect x="17" y="13" width="1" height="1" fill="white"/><rect x="18" y="13" width="1" height="1" fill="white"/><rect x="19" y="13" width="1" height="1" fill="white"/><rect x="20" y="13" width="1" height="1" fill="white"/><rect x="21" y="13" width="1" height="1" fill="white"/><rect x="22" y="13" width="1" height="1" fill="white"/><rect x="23" y="13" width="1" height="1" fill="white"/><rect x="24" y="13" width="1" height="1" fill="white"/><rect x="25" y="13" width="1" height="1" fill="white"/><rect x="26" y="13" width="1" height="1" fill="white"/><rect x="27" y="13" width="1" height="1" fill="white"/><rect x="28" y="13" width="1" height="1" fill="white"/><rect x="29" y="13" width="1" height="1" fill="white"/><rect x="30" y="13" width="1" height="1" fill="white"/><rect x="31" y="13" width="1" height="1" fill="white"/><rect x="32" y="13" width="1" height="1" fill="white"/><rect x="35" y="13" width="1" height="1" fill="white"/><rect x="36" y="13" width="1" height="1" fill="white"/><rect x="37" y="13" width="1" height="1" fill="white"/><rect x="38" y="13" width="1" height="1" fill="white"/><rect x="39" y="13" width="1" height="1" fill="white"/><rect x="40" y="13" width="1" height="1" fill="white"/><rect x="8" y="14" width="1" height="1" fill="white"/><rect x="9" y="14" width="1" height="1" fill="white"/><rect x="10" y="14" width="1" height="1" fill="white"/><rect x="11" y="14" width="1" height="1" fill="white"/><rect x="12" y="14" width="1" height="1" fill="white"/><rect x="13" y="14" width="1" height="1" fill="white"/><rect x="16" y="14" width="1" height="1" fill="white"/><rect x="17" y="14" width="1" height="1" fill="white"/><rect x="18" y="14" width="1" height="1" fill="white"/><rect x="19" y="14" width="1" height="1" fill="white"/><rect x="20" y="14" width="1" height="1" fill="white"/><rect x="29" y="14" width="1" height="1" fill="white"/><rect x="30" y="14" width="1" height="1" fill="white"/><rect x="31" y="14" width="1" height="1" fill="white"/><rect x="32" y="14" width="1" height="1" fill="white"/><rect x="33" y="14" width="1" height="1" fill="white"/><rect x="34" y="14" width="1" height="1" fill="white"/><rect x="37" y="14" width="1" height="1" fill="white"/><rect x="38" y="14" width="1" height="1" fill="white"/><rect x="39" y="14" width="1" height="1" fill="white"/><rect x="40" y="14" width="1" height="1" fill="white"/><rect x="41" y="14" width="1" height="1" fill="white"/><rect x="8" y="15" width="1" height="1" fill="white"/><rect x="9" y="15" width="1" height="1" fill="white"/><rect x="10" y="15" width="1" height="1" fill="white"/><rect x="11" y="15" width="1" height="1" fill="white"/><rect x="14" y="15" width="1" height="1" fill="white"/><rect x="15" y="15" width="1" height="1" fill="white"/><rect x="16" y="15" width="1" height="1" fill="white"/><rect x="17" y="15" width="1" height="1" fill="white"/><rect x="18" y="15" width="1" height="1" fill="white"/><rect x="22" y="15" width="1" height="1" fill="white"/><rect x="23" y="15" width="1" height="1" fill="white"/><rect x="24" y="15" width="1" height="1" fill="white"/><rect x="25" y="15" width="1" height="1" fill="white"/><rect x="26" y="15" width="1" height="1" fill="white"/><rect x="27" y="15" width="1" height="1" fill="white"/><rect x="31" y="15" width="1" height="1" fill="white"/><rect x="32" y="15" width="1" height="1" fill="white"/><rect x="33" y="15" width="1" height="1" fill="white"/><rect x="34" y="15" width="1" height="1" fill="white"/><rect x="35" y="15" width="1" height="1" fill="white"/><rect x="38" y="15" width="1" height="1" fill="white"/><rect x="39" y="15" width="1" height="1" fill="white"/><rect x="40" y="15" width="1" height="1" fill="white"/><rect x="41" y="15" width="1" height="1" fill="white"/><rect x="42" y="15" width="1" height="1" fill="white"/><rect x="7" y="16" width="1" height="1" fill="white"/><rect x="8" y="16" width="1" height="1" fill="white"/><rect x="9" y="16" width="1" height="1" fill="white"/><rect x="10" y="16" width="1" height="1" fill="white"/><rect x="11" y="16" width="1" height="1" fill="white"/><rect x="13" y="16" width="1" height="1" fill="white"/><rect x="14" y="16" width="1" height="1" fill="white"/><rect x="15" y="16" width="1" height="1" fill="white"/><rect x="16" y="16" width="1" height="1" fill="white"/><rect x="19" y="16" width="1" height="1" fill="white"/><rect x="20" y="16" width="1" height="1" fill="white"/><rect x="21" y="16" width="1" height="1" fill="white"/><rect x="22" y="16" width="1" height="1" fill="white"/><rect x="23" y="16" width="1" height="1" fill="white"/><rect x="24" y="16" width="1" height="1" fill="white"/><rect x="25" y="16" width="1" height="1" fill="white"/><rect x="26" y="16" width="1" height="1" fill="white"/><rect x="27" y="16" width="1" height="1" fill="white"/><rect x="28" y="16" width="1" height="1" fill="white"/><rect x="29" y="16" width="1" height="1" fill="white"/><rect x="30" y="16" width="1" height="1" fill="white"/><rect x="33" y="16" width="1" height="1" fill="white"/><rect x="34" y="16" width="1" height="1" fill="white"/><rect x="35" y="16" width="1" height="1" fill="white"/><rect x="36" y="16" width="1" height="1" fill="white"/><rect x="39" y="16" width="1" height="1" fill="white"/><rect x="40" y="16" width="1" height="1" fill="white"/><rect x="41" y="16" width="1" height="1" fill="white"/><rect x="42" y="16" width="1" height="1" fill="white"/><rect x="6" y="17" width="1" height="1" fill="white"/><rect x="7" y="17" width="1" height="1" fill="white"/><rect x="8" y="17" width="1" height="1" fill="white"/><rect x="9" y="17" width="1" height="1" fill="white"/><rect x="10" y="17" width="1" height="1" fill="white"/><rect x="12" y="17" width="1" height="1" fill="white"/><rect x="13" y="17" width="1" height="1" fill="white"/><rect x="14" y="17" width="1" height="1" fill="white"/><rect x="15" y="17" width="1" height="1" fill="white"/><rect x="18" y="17" width="1" height="1" fill="white"/><rect x="19" y="17" width="1" height="1" fill="white"/><rect x="20" y="17" width="1" height="1" fill="white"/><rect x="21" y="17" width="1" height="1" fill="white"/><rect x="22" y="17" width="1" height="1" fill="white"/><rect x="23" y="17" width="1" height="1" fill="white"/><rect x="24" y="17" width="1" height="1" fill="white"/><rect x="25" y="17" width="1" height="1" fill="white"/><rect x="26" y="17" width="1" height="1" fill="white"/><rect x="27" y="17" width="1" height="1" fill="white"/><rect x="28" y="17" width="1" height="1" fill="white"/><rect x="29" y="17" width="1" height="1" fill="white"/><rect x="30" y="17" width="1" height="1" fill="white"/><rect x="31" y="17" width="1" height="1" fill="white"/><rect x="34" y="17" width="1" height="1" fill="white"/><rect x="35" y="17" width="1" height="1" fill="white"/><rect x="36" y="17" width="1" height="1" fill="white"/><rect x="37" y="17" width="1" height="1" fill="white"/><rect x="39" y="17" width="1" height="1" fill="white"/><rect x="40" y="17" width="1" height="1" fill="white"/><rect x="41" y="17" width="1" height="1" fill="white"/><rect x="42" y="17" width="1" height="1" fill="white"/><rect x="43" y="17" width="1" height="1" fill="white"/><rect x="6" y="18" width="1" height="1" fill="white"/><rect x="7" y="18" width="1" height="1" fill="white"/><rect x="8" y="18" width="1" height="1" fill="white"/><rect x="9" y="18" width="1" height="1" fill="white"/><rect x="12" y="18" width="1" height="1" fill="white"/><rect x="13" y="18" width="1" height="1" fill="white"/><rect x="14" y="18" width="1" height="1" fill="white"/><rect x="17" y="18" width="1" height="1" fill="white"/><rect x="18" y="18" width="1" height="1" fill="white"/><rect x="19" y="18" width="1" height="1" fill="white"/><rect x="22" y="18" width="1" height="1" fill="white"/><rect x="23" y="18" width="1" height="1" fill="white"/><rect x="24" y="18" width="1" height="1" fill="white"/><rect x="25" y="18" width="1" height="1" fill="white"/><rect x="26" y="18" width="1" height="1" fill="white"/><rect x="27" y="18" width="1" height="1" fill="white"/><rect x="28" y="18" width="1" height="1" fill="white"/><rect x="30" y="18" width="1" height="1" fill="white"/><rect x="31" y="18" width="1" height="1" fill="white"/><rect x="32" y="18" width="1" height="1" fill="white"/><rect x="35" y="18" width="1" height="1" fill="white"/><rect x="36" y="18" width="1" height="1" fill="white"/><rect x="37" y="18" width="1" height="1" fill="white"/><rect x="40" y="18" width="1" height="1" fill="white"/><rect x="41" y="18" width="1" height="1" fill="white"/><rect x="42" y="18" width="1" height="1" fill="white"/><rect x="43" y="18" width="1" height="1" fill="white"/><rect x="6" y="19" width="1" height="1" fill="white"/><rect x="7" y="19" width="1" height="1" fill="white"/><rect x="8" y="19" width="1" height="1" fill="white"/><rect x="9" y="19" width="1" height="1" fill="white"/><rect x="11" y="19" width="1" height="1" fill="white"/><rect x="12" y="19" width="1" height="1" fill="white"/><rect x="13" y="19" width="1" height="1" fill="white"/><rect x="16" y="19" width="1" height="1" fill="white"/><rect x="17" y="19" width="1" height="1" fill="white"/><rect x="18" y="19" width="1" height="1" fill="white"/><rect x="20" y="19" width="1" height="1" fill="white"/><rect x="21" y="19" width="1" height="1" fill="white"/><rect x="22" y="19" width="1" height="1" fill="white"/><rect x="23" y="19" width="1" height="1" fill="white"/><rect x="24" y="19" width="1" height="1" fill="white"/><rect x="26" y="19" width="1" height="1" fill="white"/><rect x="27" y="19" width="1" height="1" fill="white"/><rect x="28" y="19" width="1" height="1" fill="white"/><rect x="29" y="19" width="1" height="1" fill="white"/><rect x="30" y="19" width="1" height="1" fill="white"/><rect x="31" y="19" width="1" height="1" fill="white"/><rect x="32" y="19" width="1" height="1" fill="white"/><rect x="33" y="19" width="1" height="1" fill="white"/><rect x="36" y="19" width="1" height="1" fill="white"/><rect x="37" y="19" width="1" height="1" fill="white"/><rect x="38" y="19" width="1" height="1" fill="white"/><rect x="40" y="19" width="1" height="1" fill="white"/><rect x="41" y="19" width="1" height="1" fill="white"/><rect x="42" y="19" width="1" height="1" fill="white"/><rect x="43" y="19" width="1" height="1" fill="white"/><rect x="44" y="19" width="1" height="1" fill="white"/><rect x="5" y="20" width="1" height="1" fill="white"/><rect x="6" y="20" width="1" height="1" fill="white"/><rect x="7" y="20" width="1" height="1" fill="white"/><rect x="8" y="20" width="1" height="1" fill="white"/><rect x="11" y="20" width="1" height="1" fill="white"/><rect x="12" y="20" width="1" height="1" fill="white"/><rect x="13" y="20" width="1" height="1" fill="white"/><rect x="15" y="20" width="1" height="1" fill="white"/><rect x="16" y="20" width="1" height="1" fill="white"/><rect x="17" y="20" width="1" height="1" fill="white"/><rect x="19" y="20" width="1" height="1" fill="white"/><rect x="20" y="20" width="1" height="1" fill="white"/><rect x="21" y="20" width="1" height="1" fill="white"/><rect x="29" y="20" width="1" height="1" fill="white"/><rect x="30" y="20" width="1" height="1" fill="white"/><rect x="32" y="20" width="1" height="1" fill="white"/><rect x="33" y="20" width="1" height="1" fill="white"/><rect x="34" y="20" width="1" height="1" fill="white"/><rect x="36" y="20" width="1" height="1" fill="white"/><rect x="37" y="20" width="1" height="1" fill="white"/><rect x="38" y="20" width="1" height="1" fill="white"/><rect x="41" y="20" width="1" height="1" fill="white"/><rect x="42" y="20" width="1" height="1" fill="white"/><rect x="43" y="20" width="1" height="1" fill="white"/><rect x="44" y="20" width="1" height="1" fill="white"/><rect x="5" y="21" width="1" height="1" fill="white"/><rect x="6" y="21" width="1" height="1" fill="white"/><rect x="7" y="21" width="1" height="1" fill="white"/><rect x="8" y="21" width="1" height="1" fill="white"/><rect x="10" y="21" width="1" height="1" fill="white"/><rect x="11" y="21" width="1" height="1" fill="white"/><rect x="12" y="21" width="1" height="1" fill="white"/><rect x="15" y="21" width="1" height="1" fill="white"/><rect x="16" y="21" width="1" height="1" fill="white"/><rect x="18" y="21" width="1" height="1" fill="white"/><rect x="19" y="21" width="1" height="1" fill="white"/><rect x="30" y="21" width="1" height="1" fill="white"/><rect x="31" y="21" width="1" height="1" fill="white"/><rect x="33" y="21" width="1" height="1" fill="white"/><rect x="34" y="21" width="1" height="1" fill="white"/><rect x="35" y="21" width="1" height="1" fill="white"/><rect x="37" y="21" width="1" height="1" fill="white"/><rect x="38" y="21" width="1" height="1" fill="white"/><rect x="39" y="21" width="1" height="1" fill="white"/><rect x="41" y="21" width="1" height="1" fill="white"/><rect x="42" y="21" width="1" height="1" fill="white"/><rect x="43" y="21" width="1" height="1" fill="white"/><rect x="44" y="21" width="1" height="1" fill="white"/><rect x="5" y="22" width="1" height="1" fill="white"/><rect x="6" y="22" width="1" height="1" fill="white"/><rect x="7" y="22" width="1" height="1" fill="white"/><rect x="8" y="22" width="1" height="1" fill="white"/><rect x="10" y="22" width="1" height="1" fill="white"/><rect x="11" y="22" width="1" height="1" fill="white"/><rect x="12" y="22" width="1" height="1" fill="white"/><rect x="14" y="22" width="1" height="1" fill="white"/><rect x="15" y="22" width="1" height="1" fill="white"/><rect x="16" y="22" width="1" height="1" fill="white"/><rect x="17" y="22" width="1" height="1" fill="white"/><rect x="18" y="22" width="1" height="1" fill="white"/><rect x="19" y="22" width="1" height="1" fill="white"/><rect x="31" y="22" width="1" height="1" fill="white"/><rect x="32" y="22" width="1" height="1" fill="white"/><rect x="33" y="22" width="1" height="1" fill="white"/><rect x="34" y="22" width="1" height="1" fill="white"/><rect x="35" y="22" width="1" height="1" fill="white"/><rect x="37" y="22" width="1" height="1" fill="white"/><rect x="38" y="22" width="1" height="1" fill="white"/><rect x="39" y="22" width="1" height="1" fill="white"/><rect x="42" y="22" width="1" height="1" fill="white"/><rect x="43" y="22" width="1" height="1" fill="white"/><rect x="44" y="22" width="1" height="1" fill="white"/><rect x="45" y="22" width="1" height="1" fill="white"/><rect x="4" y="23" width="1" height="1" fill="white"/><rect x="5" y="23" width="1" height="1" fill="white"/><rect x="6" y="23" width="1" height="1" fill="white"/><rect x="7" y="23" width="1" height="1" fill="white"/><rect x="10" y="23" width="1" height="1" fill="white"/><rect x="11" y="23" width="1" height="1" fill="white"/><rect x="14" y="23" width="1" height="1" fill="white"/><rect x="15" y="23" width="1" height="1" fill="white"/><rect x="16" y="23" width="1" height="1" fill="white"/><rect x="17" y="23" width="1" height="1" fill="white"/><rect x="18" y="23" width="1" height="1" fill="white"/><rect x="23" y="23" width="1" height="1" fill="white"/><rect x="24" y="23" width="1" height="1" fill="white"/><rect x="25" y="23" width="1" height="1" fill="white"/><rect x="26" y="23" width="1" height="1" fill="white"/><rect x="31" y="23" width="1" height="1" fill="white"/><rect x="32" y="23" width="1" height="1" fill="white"/><rect x="33" y="23" width="1" height="1" fill="white"/><rect x="34" y="23" width="1" height="1" fill="white"/><rect x="35" y="23" width="1" height="1" fill="white"/><rect x="38" y="23" width="1" height="1" fill="white"/><rect x="39" y="23" width="1" height="1" fill="white"/><rect x="42" y="23" width="1" height="1" fill="white"/><rect x="43" y="23" width="1" height="1" fill="white"/><rect x="44" y="23" width="1" height="1" fill="white"/><rect x="45" y="23" width="1" height="1" fill="white"/><rect x="4" y="24" width="1" height="1" fill="white"/><rect x="5" y="24" width="1" height="1" fill="white"/><rect x="6" y="24" width="1" height="1" fill="white"/><rect x="10" y="24" width="1" height="1" fill="white"/><rect x="11" y="24" width="1" height="1" fill="white"/><rect x="13" y="24" width="1" height="1" fill="white"/><rect x="14" y="24" width="1" height="1" fill="white"/><rect x="15" y="24" width="1" height="1" fill="white"/><rect x="16" y="24" width="1" height="1" fill="white"/><rect x="17" y="24" width="1" height="1" fill="white"/><rect x="22" y="24" width="1" height="1" fill="white"/><rect x="23" y="24" width="1" height="1" fill="white"/><rect x="27" y="24" width="1" height="1" fill="white"/><rect x="32" y="24" width="1" height="1" fill="white"/><rect x="33" y="24" width="1" height="1" fill="white"/><rect x="34" y="24" width="1" height="1" fill="white"/><rect x="35" y="24" width="1" height="1" fill="white"/><rect x="36" y="24" width="1" height="1" fill="white"/><rect x="38" y="24" width="1" height="1" fill="white"/><rect x="39" y="24" width="1" height="1" fill="white"/><rect x="40" y="24" width="1" height="1" fill="white"/><rect x="43" y="24" width="1" height="1" fill="white"/><rect x="44" y="24" width="1" height="1" fill="white"/><rect x="45" y="24" width="1" height="1" fill="white"/><rect x="4" y="25" width="1" height="1" fill="white"/><rect x="5" y="25" width="1" height="1" fill="white"/><rect x="11" y="25" width="1" height="1" fill="white"/><rect x="13" y="25" width="1" height="1" fill="white"/><rect x="14" y="25" width="1" height="1" fill="white"/><rect x="15" y="25" width="1" height="1" fill="white"/><rect x="16" y="25" width="1" height="1" fill="white"/><rect x="17" y="25" width="1" height="1" fill="white"/><rect x="21" y="25" width="1" height="1" fill="white"/><rect x="22" y="25" width="1" height="1" fill="white"/><rect x="28" y="25" width="1" height="1" fill="white"/><rect x="32" y="25" width="1" height="1" fill="white"/><rect x="33" y="25" width="1" height="1" fill="white"/><rect x="34" y="25" width="1" height="1" fill="white"/><rect x="35" y="25" width="1" height="1" fill="white"/><rect x="36" y="25" width="1" height="1" fill="white"/><rect x="38" y="25" width="1" height="1" fill="white"/><rect x="39" y="25" width="1" height="1" fill="white"/><rect x="44" y="25" width="1" height="1" fill="white"/><rect x="45" y="25" width="1" height="1" fill="white"/><rect x="4" y="26" width="1" height="1" fill="white"/><rect x="5" y="26" width="1" height="1" fill="white"/><rect x="11" y="26" width="1" height="1" fill="white"/><rect x="13" y="26" width="1" height="1" fill="white"/><rect x="14" y="26" width="1" height="1" fill="white"/><rect x="15" y="26" width="1" height="1" fill="white"/><rect x="16" y="26" width="1" height="1" fill="white"/><rect x="17" y="26" width="1" height="1" fill="white"/><rect x="21" y="26" width="1" height="1" fill="white"/><rect x="24" y="26" width="1" height="1" fill="white"/><rect x="25" y="26" width="1" height="1" fill="white"/><rect x="28" y="26" width="1" height="1" fill="white"/><rect x="32" y="26" width="1" height="1" fill="white"/><rect x="33" y="26" width="1" height="1" fill="white"/><rect x="35" y="26" width="1" height="1" fill="white"/><rect x="36" y="26" width="1" height="1" fill="white"/><rect x="38" y="26" width="1" height="1" fill="white"/><rect x="45" y="26" width="1" height="1" fill="white"/><rect x="4" y="27" width="1" height="1" fill="white"/><rect x="5" y="27" width="1" height="1" fill="white"/><rect x="11" y="27" width="1" height="1" fill="white"/><rect x="13" y="27" width="1" height="1" fill="white"/><rect x="14" y="27" width="1" height="1" fill="white"/><rect x="15" y="27" width="1" height="1" fill="white"/><rect x="16" y="27" width="1" height="1" fill="white"/><rect x="17" y="27" width="1" height="1" fill="white"/><rect x="21" y="27" width="1" height="1" fill="white"/><rect x="24" y="27" width="1" height="1" fill="white"/><rect x="25" y="27" width="1" height="1" fill="white"/><rect x="28" y="27" width="1" height="1" fill="white"/><rect x="32" y="27" width="1" height="1" fill="white"/><rect x="33" y="27" width="1" height="1" fill="white"/><rect x="35" y="27" width="1" height="1" fill="white"/><rect x="36" y="27" width="1" height="1" fill="white"/><rect x="38" y="27" width="1" height="1" fill="white"/><rect x="45" y="27" width="1" height="1" fill="white"/><rect x="4" y="28" width="1" height="1" fill="white"/><rect x="5" y="28" width="1" height="1" fill="white"/><rect x="11" y="28" width="1" height="1" fill="white"/><rect x="13" y="28" width="1" height="1" fill="white"/><rect x="14" y="28" width="1" height="1" fill="white"/><rect x="16" y="28" width="1" height="1" fill="white"/><rect x="17" y="28" width="1" height="1" fill="white"/><rect x="21" y="28" width="1" height="1" fill="white"/><rect x="22" y="28" width="1" height="1" fill="white"/><rect x="28" y="28" width="1" height="1" fill="white"/><rect x="32" y="28" width="1" height="1" fill="white"/><rect x="33" y="28" width="1" height="1" fill="white"/><rect x="34" y="28" width="1" height="1" fill="white"/><rect x="35" y="28" width="1" height="1" fill="white"/><rect x="36" y="28" width="1" height="1" fill="white"/><rect x="38" y="28" width="1" height="1" fill="white"/><rect x="39" y="28" width="1" height="1" fill="white"/><rect x="44" y="28" width="1" height="1" fill="white"/><rect x="45" y="28" width="1" height="1" fill="white"/><rect x="4" y="29" width="1" height="1" fill="white"/><rect x="5" y="29" width="1" height="1" fill="white"/><rect x="6" y="29" width="1" height="1" fill="white"/><rect x="10" y="29" width="1" height="1" fill="white"/><rect x="11" y="29" width="1" height="1" fill="white"/><rect x="13" y="29" width="1" height="1" fill="white"/><rect x="14" y="29" width="1" height="1" fill="white"/><rect x="15" y="29" width="1" height="1" fill="white"/><rect x="16" y="29" width="1" height="1" fill="white"/><rect x="17" y="29" width="1" height="1" fill="white"/><rect x="18" y="29" width="1" height="1" fill="white"/><rect x="22" y="29" width="1" height="1" fill="white"/><rect x="23" y="29" width="1" height="1" fill="white"/><rect x="27" y="29" width="1" height="1" fill="white"/><rect x="32" y="29" width="1" height="1" fill="white"/><rect x="33" y="29" width="1" height="1" fill="white"/><rect x="35" y="29" width="1" height="1" fill="white"/><rect x="36" y="29" width="1" height="1" fill="white"/><rect x="38" y="29" width="1" height="1" fill="white"/><rect x="39" y="29" width="1" height="1" fill="white"/><rect x="40" y="29" width="1" height="1" fill="white"/><rect x="43" y="29" width="1" height="1" fill="white"/><rect x="44" y="29" width="1" height="1" fill="white"/><rect x="45" y="29" width="1" height="1" fill="white"/><rect x="4" y="30" width="1" height="1" fill="white"/><rect x="5" y="30" width="1" height="1" fill="white"/><rect x="6" y="30" width="1" height="1" fill="white"/><rect x="7" y="30" width="1" height="1" fill="white"/><rect x="10" y="30" width="1" height="1" fill="white"/><rect x="11" y="30" width="1" height="1" fill="white"/><rect x="14" y="30" width="1" height="1" fill="white"/><rect x="15" y="30" width="1" height="1" fill="white"/><rect x="17" y="30" width="1" height="1" fill="white"/><rect x="18" y="30" width="1" height="1" fill="white"/><rect x="23" y="30" width="1" height="1" fill="white"/><rect x="24" y="30" width="1" height="1" fill="white"/><rect x="25" y="30" width="1" height="1" fill="white"/><rect x="26" y="30" width="1" height="1" fill="white"/><rect x="31" y="30" width="1" height="1" fill="white"/><rect x="32" y="30" width="1" height="1" fill="white"/><rect x="34" y="30" width="1" height="1" fill="white"/><rect x="35" y="30" width="1" height="1" fill="white"/><rect x="38" y="30" width="1" height="1" fill="white"/><rect x="39" y="30" width="1" height="1" fill="white"/><rect x="42" y="30" width="1" height="1" fill="white"/><rect x="43" y="30" width="1" height="1" fill="white"/><rect x="44" y="30" width="1" height="1" fill="white"/><rect x="45" y="30" width="1" height="1" fill="white"/><rect x="5" y="31" width="1" height="1" fill="white"/><rect x="6" y="31" width="1" height="1" fill="white"/><rect x="7" y="31" width="1" height="1" fill="white"/><rect x="8" y="31" width="1" height="1" fill="white"/><rect x="10" y="31" width="1" height="1" fill="white"/><rect x="11" y="31" width="1" height="1" fill="white"/><rect x="12" y="31" width="1" height="1" fill="white"/><rect x="14" y="31" width="1" height="1" fill="white"/><rect x="15" y="31" width="1" height="1" fill="white"/><rect x="17" y="31" width="1" height="1" fill="white"/><rect x="18" y="31" width="1" height="1" fill="white"/><rect x="31" y="31" width="1" height="1" fill="white"/><rect x="32" y="31" width="1" height="1" fill="white"/><rect x="34" y="31" width="1" height="1" fill="white"/><rect x="35" y="31" width="1" height="1" fill="white"/><rect x="37" y="31" width="1" height="1" fill="white"/><rect x="38" y="31" width="1" height="1" fill="white"/><rect x="39" y="31" width="1" height="1" fill="white"/><rect x="42" y="31" width="1" height="1" fill="white"/><rect x="43" y="31" width="1" height="1" fill="white"/><rect x="44" y="31" width="1" height="1" fill="white"/><rect x="45" y="31" width="1" height="1" fill="white"/><rect x="5" y="32" width="1" height="1" fill="white"/><rect x="6" y="32" width="1" height="1" fill="white"/><rect x="7" y="32" width="1" height="1" fill="white"/><rect x="8" y="32" width="1" height="1" fill="white"/><rect x="10" y="32" width="1" height="1" fill="white"/><rect x="11" y="32" width="1" height="1" fill="white"/><rect x="12" y="32" width="1" height="1" fill="white"/><rect x="15" y="32" width="1" height="1" fill="white"/><rect x="16" y="32" width="1" height="1" fill="white"/><rect x="18" y="32" width="1" height="1" fill="white"/><rect x="31" y="32" width="1" height="1" fill="white"/><rect x="32" y="32" width="1" height="1" fill="white"/><rect x="33" y="32" width="1" height="1" fill="white"/><rect x="34" y="32" width="1" height="1" fill="white"/><rect x="35" y="32" width="1" height="1" fill="white"/><rect x="37" y="32" width="1" height="1" fill="white"/><rect x="38" y="32" width="1" height="1" fill="white"/><rect x="39" y="32" width="1" height="1" fill="white"/><rect x="41" y="32" width="1" height="1" fill="white"/><rect x="42" y="32" width="1" height="1" fill="white"/><rect x="43" y="32" width="1" height="1" fill="white"/><rect x="44" y="32" width="1" height="1" fill="white"/><rect x="5" y="33" width="1" height="1" fill="white"/><rect x="6" y="33" width="1" height="1" fill="white"/><rect x="7" y="33" width="1" height="1" fill="white"/><rect x="8" y="33" width="1" height="1" fill="white"/><rect x="11" y="33" width="1" height="1" fill="white"/><rect x="12" y="33" width="1" height="1" fill="white"/><rect x="13" y="33" width="1" height="1" fill="white"/><rect x="15" y="33" width="1" height="1" fill="white"/><rect x="16" y="33" width="1" height="1" fill="white"/><rect x="17" y="33" width="1" height="1" fill="white"/><rect x="32" y="33" width="1" height="1" fill="white"/><rect x="33" y="33" width="1" height="1" fill="white"/><rect x="34" y="33" width="1" height="1" fill="white"/><rect x="36" y="33" width="1" height="1" fill="white"/><rect x="37" y="33" width="1" height="1" fill="white"/><rect x="38" y="33" width="1" height="1" fill="white"/><rect x="41" y="33" width="1" height="1" fill="white"/><rect x="42" y="33" width="1" height="1" fill="white"/><rect x="43" y="33" width="1" height="1" fill="white"/><rect x="44" y="33" width="1" height="1" fill="white"/><rect x="6" y="34" width="1" height="1" fill="white"/><rect x="7" y="34" width="1" height="1" fill="white"/><rect x="8" y="34" width="1" height="1" fill="white"/><rect x="9" y="34" width="1" height="1" fill="white"/><rect x="11" y="34" width="1" height="1" fill="white"/><rect x="12" y="34" width="1" height="1" fill="white"/><rect x="13" y="34" width="1" height="1" fill="white"/><rect x="16" y="34" width="1" height="1" fill="white"/><rect x="17" y="34" width="1" height="1" fill="white"/><rect x="18" y="34" width="1" height="1" fill="white"/><rect x="31" y="34" width="1" height="1" fill="white"/><rect x="32" y="34" width="1" height="1" fill="white"/><rect x="33" y="34" width="1" height="1" fill="white"/><rect x="36" y="34" width="1" height="1" fill="white"/><rect x="37" y="34" width="1" height="1" fill="white"/><rect x="38" y="34" width="1" height="1" fill="white"/><rect x="41" y="34" width="1" height="1" fill="white"/><rect x="42" y="34" width="1" height="1" fill="white"/><rect x="43" y="34" width="1" height="1" fill="white"/><rect x="44" y="34" width="1" height="1" fill="white"/><rect x="6" y="35" width="1" height="1" fill="white"/><rect x="7" y="35" width="1" height="1" fill="white"/><rect x="8" y="35" width="1" height="1" fill="white"/><rect x="9" y="35" width="1" height="1" fill="white"/><rect x="12" y="35" width="1" height="1" fill="white"/><rect x="13" y="35" width="1" height="1" fill="white"/><rect x="14" y="35" width="1" height="1" fill="white"/><rect x="17" y="35" width="1" height="1" fill="white"/><rect x="18" y="35" width="1" height="1" fill="white"/><rect x="31" y="35" width="1" height="1" fill="white"/><rect x="32" y="35" width="1" height="1" fill="white"/><rect x="35" y="35" width="1" height="1" fill="white"/><rect x="36" y="35" width="1" height="1" fill="white"/><rect x="37" y="35" width="1" height="1" fill="white"/><rect x="40" y="35" width="1" height="1" fill="white"/><rect x="41" y="35" width="1" height="1" fill="white"/><rect x="42" y="35" width="1" height="1" fill="white"/><rect x="43" y="35" width="1" height="1" fill="white"/><rect x="6" y="36" width="1" height="1" fill="white"/><rect x="7" y="36" width="1" height="1" fill="white"/><rect x="8" y="36" width="1" height="1" fill="white"/><rect x="9" y="36" width="1" height="1" fill="white"/><rect x="10" y="36" width="1" height="1" fill="white"/><rect x="13" y="36" width="1" height="1" fill="white"/><rect x="14" y="36" width="1" height="1" fill="white"/><rect x="15" y="36" width="1" height="1" fill="white"/><rect x="18" y="36" width="1" height="1" fill="white"/><rect x="19" y="36" width="1" height="1" fill="white"/><rect x="30" y="36" width="1" height="1" fill="white"/><rect x="31" y="36" width="1" height="1" fill="white"/><rect x="34" y="36" width="1" height="1" fill="white"/><rect x="35" y="36" width="1" height="1" fill="white"/><rect x="36" y="36" width="1" height="1" fill="white"/><rect x="37" y="36" width="1" height="1" fill="white"/><rect x="39" y="36" width="1" height="1" fill="white"/><rect x="40" y="36" width="1" height="1" fill="white"/><rect x="41" y="36" width="1" height="1" fill="white"/><rect x="42" y="36" width="1" height="1" fill="white"/><rect x="43" y="36" width="1" height="1" fill="white"/><rect x="7" y="37" width="1" height="1" fill="white"/><rect x="8" y="37" width="1" height="1" fill="white"/><rect x="9" y="37" width="1" height="1" fill="white"/><rect x="10" y="37" width="1" height="1" fill="white"/><rect x="11" y="37" width="1" height="1" fill="white"/><rect x="13" y="37" width="1" height="1" fill="white"/><rect x="14" y="37" width="1" height="1" fill="white"/><rect x="15" y="37" width="1" height="1" fill="white"/><rect x="16" y="37" width="1" height="1" fill="white"/><rect x="30" y="37" width="1" height="1" fill="white"/><rect x="33" y="37" width="1" height="1" fill="white"/><rect x="34" y="37" width="1" height="1" fill="white"/><rect x="35" y="37" width="1" height="1" fill="white"/><rect x="36" y="37" width="1" height="1" fill="white"/><rect x="39" y="37" width="1" height="1" fill="white"/><rect x="40" y="37" width="1" height="1" fill="white"/><rect x="41" y="37" width="1" height="1" fill="white"/><rect x="42" y="37" width="1" height="1" fill="white"/><rect x="8" y="38" width="1" height="1" fill="white"/><rect x="9" y="38" width="1" height="1" fill="white"/><rect x="10" y="38" width="1" height="1" fill="white"/><rect x="11" y="38" width="1" height="1" fill="white"/><rect x="14" y="38" width="1" height="1" fill="white"/><rect x="15" y="38" width="1" height="1" fill="white"/><rect x="16" y="38" width="1" height="1" fill="white"/><rect x="17" y="38" width="1" height="1" fill="white"/><rect x="18" y="38" width="1" height="1" fill="white"/><rect x="32" y="38" width="1" height="1" fill="white"/><rect x="33" y="38" width="1" height="1" fill="white"/><rect x="34" y="38" width="1" height="1" fill="white"/><rect x="35" y="38" width="1" height="1" fill="white"/><rect x="38" y="38" width="1" height="1" fill="white"/><rect x="39" y="38" width="1" height="1" fill="white"/><rect x="40" y="38" width="1" height="1" fill="white"/><rect x="41" y="38" width="1" height="1" fill="white"/><rect x="42" y="38" width="1" height="1" fill="white"/><rect x="8" y="39" width="1" height="1" fill="white"/><rect x="9" y="39" width="1" height="1" fill="white"/><rect x="10" y="39" width="1" height="1" fill="white"/><rect x="11" y="39" width="1" height="1" fill="white"/><rect x="12" y="39" width="1" height="1" fill="white"/><rect x="16" y="39" width="1" height="1" fill="white"/><rect x="17" y="39" width="1" height="1" fill="white"/><rect x="18" y="39" width="1" height="1" fill="white"/><rect x="19" y="39" width="1" height="1" fill="white"/><rect x="20" y="39" width="1" height="1" fill="white"/><rect x="30" y="39" width="1" height="1" fill="white"/><rect x="31" y="39" width="1" height="1" fill="white"/><rect x="32" y="39" width="1" height="1" fill="white"/><rect x="33" y="39" width="1" height="1" fill="white"/><rect x="37" y="39" width="1" height="1" fill="white"/><rect x="38" y="39" width="1" height="1" fill="white"/><rect x="40" y="39" width="1" height="1" fill="white"/><rect x="41" y="39" width="1" height="1" fill="white"/><rect x="9" y="40" width="1" height="1" fill="white"/><rect x="10" y="40" width="1" height="1" fill="white"/><rect x="12" y="40" width="1" height="1" fill="white"/><rect x="13" y="40" width="1" height="1" fill="white"/><rect x="17" y="40" width="1" height="1" fill="white"/><rect x="18" y="40" width="1" height="1" fill="white"/><rect x="19" y="40" width="1" height="1" fill="white"/><rect x="20" y="40" width="1" height="1" fill="white"/><rect x="30" y="40" width="1" height="1" fill="white"/><rect x="31" y="40" width="1" height="1" fill="white"/><rect x="32" y="40" width="1" height="1" fill="white"/><rect x="36" y="40" width="1" height="1" fill="white"/><rect x="37" y="40" width="1" height="1" fill="white"/><rect x="39" y="40" width="1" height="1" fill="white"/><rect x="40" y="40" width="1" height="1" fill="white"/><rect x="10" y="41" width="1" height="1" fill="white"/><rect x="11" y="41" width="1" height="1" fill="white"/><rect x="13" y="41" width="1" height="1" fill="white"/><rect x="14" y="41" width="1" height="1" fill="white"/><rect x="15" y="41" width="1" height="1" fill="white"/><rect x="19" y="41" width="1" height="1" fill="white"/><rect x="30" y="41" width="1" height="1" fill="white"/><rect x="34" y="41" width="1" height="1" fill="white"/><rect x="35" y="41" width="1" height="1" fill="white"/><rect x="37" y="41" width="1" height="1" fill="white"/><rect x="38" y="41" width="1" height="1" fill="white"/><rect x="39" y="41" width="1" height="1" fill="white"/><rect x="11" y="42" width="1" height="1" fill="white"/><rect x="12" y="42" width="1" height="1" fill="white"/><rect x="13" y="42" width="1" height="1" fill="white"/><rect x="14" y="42" width="1" height="1" fill="white"/><rect x="15" y="42" width="1" height="1" fill="white"/><rect x="16" y="42" width="1" height="1" fill="white"/><rect x="17" y="42" width="1" height="1" fill="white"/><rect x="32" y="42" width="1" height="1" fill="white"/><rect x="33" y="42" width="1" height="1" fill="white"/><rect x="34" y="42" width="1" height="1" fill="white"/><rect x="35" y="42" width="1" height="1" fill="white"/><rect x="36" y="42" width="1" height="1" fill="white"/><rect x="37" y="42" width="1" height="1" fill="white"/><rect x="38" y="42" width="1" height="1" fill="white"/><rect x="12" y="43" width="1" height="1" fill="white"/><rect x="13" y="43" width="1" height="1" fill="white"/><rect x="14" y="43" width="1" height="1" fill="white"/><rect x="15" y="43" width="1" height="1" fill="white"/><rect x="16" y="43" width="1" height="1" fill="white"/><rect x="34" y="43" width="1" height="1" fill="white"/><rect x="35" y="43" width="1" height="1" fill="white"/><rect x="36" y="43" width="1" height="1" fill="white"/><rect x="37" y="43" width="1" height="1" fill="white"/>
</svg>