<?xml version="1.0" encoding="UTF-8"?>
<svg xmlns="http://www.w3.org/2000/svg" width="50" height="50" viewBox="0 0 50 50">
<rect x="35" y="4" width="1" height="1" fill="white"/><rect x="36" y="4" width="1" height="1" fill="white"/><rect x="37" y="4" width="1" height="1" fill="white"/><rect x="38" y="4" width="1" height="1" fill="white"/><rect x="39" y="4" width="1" height="1" fill="white"/><rect x="33" y="5" width="1" height="1" fill="white"/><rect x="34" y="5" width="1" height="1" fill="white"/><rect x="35" y="5" width="1" height="1" fill="white"/><rect x="36" y="5" width="1" height="1" fill="white"/><rect x="37" y="5" width="1" height="1" fill="white"/><rect x="38" y="5" width="1" height="1" fill="white"/><rect x="39" y="5" width="1" height="1" fill="white"/><rect x="40" y="5" width="1" height="1" fill="white"/><rect x="41" y="5" width="1" height="1" fill="white"/><rect x="32" y="6" width="1" height="1" fill="white"/><rect x="33" y="6" width="1" height="1" fill="white"/><rect x="34" y="6" width="1" height="1" fill="white"/><rect x="35" y="6" width="1" height="1" fill="white"/><rect x="36" y="6" width="1" height="1" fill="white"/><rect x="37" y="6" width="1" height="1" fill="white"/><rect x="38" y="6" width="1" height="1" fill="white"/><rect x="39" y="6" width="1" height="1" fill="white"/><rect x="40" y="6" width="1" height="1" fill="white"/><rect x="41" y="6" width="1" height="1" fill="white"/><rect x="42" y="6" width="1" height="1" fill="white"/><rect x="31" y="7" width="1" height="1" fill="white"/><rect x="32" y="7" width="1" height="1" fill="white"/><rect x="33" y="7" width="1" height="1" fill="white"/><rect x="34" y="7" width="1" height="1" fill="white"/><rect x="35" y="7" width="1" height="1" fill="white"/><rect x="36" y="7" width="1" height="1" fill="white"/><rect x="37" y="7" width="1" height="1" fill="white"/><rect x="38" y="7" width="1" height="1" fill="white"/><rect x="39" y="7" width="1" height="1" fill="white"/><rect x="40" y="7" width="1" height="1" fill="white"/><rect x="41" y="7" width="1" height="1" fill="white"/><rect x="42" y="7" width="1" height="1" fill="white"/><rect x="43" y="7" width="1" height="1" fill="white"/><rect x="30" y="8" width="1" height="1" fill="white"/><rect x="31" y="8" width="1" height="1" fill="white"/><rect x="32" y="8" width="1" height="1" fill="white"/><rect x="33" y="8" width="1" height="1" fill="white"/><rect x="34" y="8" width="1" height="1" fill="white"/><rect x="40" y="8" width="1" height="1" fill="white"/><rect x="41" y="8" width="1" height="1" fill="white"/><rect x="42" y="8" width="1" height="1" fill="white"/><rect x="43" y="8" width="1" height="1" fill="white"/><rect x="30" y="9" width="1" height="1" fill="white"/><rect x="31" y="9" width="1" height="1" fill="white"/><rect x="32" y="9" width="1" height="1" fill="white"/><rect x="33" y="9" width="1" height="1" fill="white"/><rect x="37" y="9" width="1" height="1" fill="white"/><rect x="38" y="9" width="1" height="1" fill="white"/><rect x="39" y="9" width="1" height="1" fill="white"/><rect x="41" y="9" width="1" height="1" fill="white"/><rect x="42" y="9" width="1" height="1" fill="white"/><rect x="43" y="9" width="1" height="1" fill="white"/><rect x="44" y="9" width="1" height="1" fill="white"/><rect x="29" y="10" width="1" height="1" fill="white"/><rect x="30" y="10" width="1" height="1" fill="white"/><rect x="31" y="10" width="1" height="1" fill="white"/><rect x="32" y="10" width="1" height="1" fill="white"/><rect x="37" y="10" width="1" height="1" fill="white"/><rect x="38" y="10" width="1" height="1" fill="white"/><rect x="39" y="10" width="1" height="1" fill="white"/><rect x="40" y="10" width="1" height="1" fill="white"/><rect x="42" y="10" width="1" height="1" fill="white"/><rect x="43" y="10" width="1" height="1" fill="white"/><rect x="44" y="10" width="1" height="1" fill="white"/><rect x="30" y="11" width="1" height="1" fill="white"/><rect x="31" y="11" width="1" height="1" fill="white"/><rect x="37" y="11" width="1" height="1" fill="white"/><rect x="38" y="11" width="1" height="1" fill="white"/><rect x="39" y="11" width="1" height="1" fill="white"/><rect x="41" y="11" width="1" height="1" fill="white"/><rect x="42" y="11" width="1" height="1" fill="white"/><rect x="43" y="11" width="1" height="1" fill="white"/><rect x="44" y="11" width="1" height="1" fill="white"/><rect x="30" y="12" width="1" height="1" fill="white"/><rect x="31" y="12" width="1" height="1" fill="white"/><rect x="34" y="12" width="1" height="1" fill="white"/><rect x="35" y="12" width="1" height="1" fill="white"/><rect x="36" y="12" width="1" height="1" fill="white"/><rect x="38" y="12" width="1" height="1" fill="white"/><rect x="39" y="12" width="1" height="1" fill="white"/><rect x="41" y="12" width="1" height="1" fill="white"/><rect x="42" y="12" width="1" height="1" fill="white"/><rect x="43" y="12" width="1" height="1" fill="white"/><rect x="44" y="12" width="1" height="1" fill="white"/><rect x="27" y="13" width="1" height="1" fill="white"/><rect x="30" y="13" width="1" height="1" fill="white"/><rect x="31" y="13" width="1" height="1" fill="white"/><rect x="32" y="13" width="1" height="1" fill="white"/><rect x="34" y="13" width="1" height="1" fill="white"/><rect x="35" y="13" width="1" height="1" fill="white"/><rect x="36" y="13" width="1" height="1" fill="white"/><rect x="41" y="13" width="1" height="1" fill="white"/><rect x="42" y="13" width="1" height="1" fill="white"/><rect x="43" y="13" width="1" height="1" fill="white"/><rect x="44" y="13" width="1" height="1" fill="white"/><rect x="26" y="14" width="1" height="1" fill="white"/><rect x="27" y="14" width="1" height="1" fill="white"/><rect x="29" y="14" width="1" height="1" fill="white"/><rect x="30" y="14" width="1" height="1" fill="white"/><rect x="31" y="14" width="1" height="1" fill="white"/><rect x="32" y="14" width="1" height="1" fill="white"/><rect x="34" y="14" width="1" height="1" fill="white"/><rect x="35" y="14" width="1" height="1" fill="white"/><rect x="36" y="14" width="1" height="1" fill="white"/><rect x="41" y="14" width="1" height="1" fill="white"/><rect x="42" y="14" width="1" height="1" fill="white"/><rect x="43" y="14" width="1" height="1" fill="white"/><rect x="44" y="14" width="1" height="1" fill="white"/><rect x="28" y="15" width="1" height="1" fill="white"/><rect x="29" y="15" width="1" height="1" fill="white"/><rect x="30" y="15" width="1" height="1" fill="white"/><rect x="31" y="15" width="1" height="1" fill="white"/><rect x="32" y="15" width="1" height="1" fill="white"/><rect x="33" y="15" width="1" height="1" fill="white"/><rect x="35" y="15" width="1" height="1" fill="white"/><rect x="40" y="15" width="1" height="1" fill="white"/><rect x="41" y="15" width="1" height="1" fill="white"/><rect x="42" y="15" width="1" height="1" fill="white"/><rect x="43" y="15" width="1" height="1" fill="white"/><rect x="26" y="16" width="1" height="1" fill="white"/><rect x="27" y="16" width="1" height="1" fill="white"/><rect x="28" y="16" width="1" height="1" fill="white"/><rect x="29" y="16" width="1" height="1" fill="white"/><rect x="30" y="16" width="1" height="1" fill="white"/><rect x="31" y="16" width="1" height="1" fill="white"/><rect x="32" y="16" width="1" height="1" fill="white"/><rect x="33" y="16" width="1" height="1" fill="white"/><rect x="34" y="16" width="1" height="1" fill="white"/><rect x="39" y="16" width="1" height="1" fill="white"/><rect x="40" y="16" width="1" height="1" fill="white"/><rect x="41" y="16" width="1" height="1" fill="white"/><rect x="42" y="16" width="1" height="1" fill="white"/><rect x="43" y="16" width="1" height="1" fill="white"/><rect x="21" y="17" width="1" height="1" fill="white"/><rect x="25" y="17" width="1" height="1" fill="white"/><rect x="26" y="17" width="1" height="1" fill="white"/><rect x="27" y="17" width="1" height="1" fill="white"/><rect x="28" y="17" width="1" height="1" fill="white"/><rect x="29" y="17" width="1" height="1" fill="white"/><rect x="30" y="17" width="1" height="1" fill="white"/><rect x="31" y="17" width="1" height="1" fill="white"/><rect x="32" y="17" width="1" height="1" fill="white"/><rect x="33" y="17" width="1" height="1" fill="white"/><rect x="34" y="17" width="1" height="1" fill="white"/><rect x="35" y="17" width="1" height="1" fill="white"/><rect x="36" y="17" width="1" height="1" fill="white"/><rect x="37" y="17" width="1" height="1" fill="white"/><rect x="38" y="17" width="1" height="1" fill="white"/><rect x="39" y="17" width="1" height="1" fill="white"/><rect x="40" y="17" width="1" height="1" fill="white"/><rect x="41" y="17" width="1" height="1" fill="white"/><rect x="42" y="17" width="1" height="1" fill="white"/><rect x="20" y="18" width="1" height="1" fill="white"/><rect x="26" y="18" width="1" height="1" fill="white"/><rect x="27" y="18" width="1" height="1" fill="white"/><rect x="28" y="18" width="1" height="1" fill="white"/><rect x="29" y="18" width="1" height="1" fill="white"/><rect x="30" y="18" width="1" height="1" fill="white"/><rect x="31" y="18" width="1" height="1" fill="white"/><rect x="33" y="18" width="1" height="1" fill="white"/><rect x="34" y="18" width="1" height="1" fill="white"/><rect x="35" y="18" width="1" height="1" fill="white"/><rect x="36" y="18" width="1" height="1" fill="white"/><rect x="37" y="18" width="1" height="1" fill="white"/><rect x="38" y="18" width="1" height="1" fill="white"/><rect x="39" y="18" width="1" height="1" fill="white"/><rect x="40" y="18" width="1" height="1" fill="white"/><rect x="19" y="19" width="1" height="1" fill="white"/><rect x="21" y="19" width="1" height="1" fill="white"/><rect x="22" y="19" width="1" height="1" fill="white"/><rect x="24" y="19" width="1" height="1" fill="white"/><rect x="25" y="19" width="1" height="1" fill="white"/><rect x="26" y="19" width="1" height="1" fill="white"/><rect x="27" y="19" width="1" height="1" fill="white"/><rect x="28" y="19" width="1" height="1" fill="white"/><rect x="29" y="19" width="1" height="1" fill="white"/><rect x="30" y="19" width="1" height="1" fill="white"/><rect x="31" y="19" width="1" height="1" fill="white"/><rect x="32" y="19" width="1" height="1" fill="white"/><rect x="33" y="19" width="1" height="1" fill="white"/><rect x="34" y="19" width="1" height="1" fill="white"/><rect x="36" y="19" width="1" height="1" fill="white"/><rect x="37" y="19" width="1" height="1" fill="white"/><rect x="38" y="19" width="1" height="1" fill="white"/><rect x="17" y="20" width="1" height="1" fill="white"/><rect x="18" y="20" width="1" height="1" fill="white"/><rect x="21" y="20" width="1" height="1" fill="white"/><rect x="22" y="20" width="1" height="1" fill="white"/><rect x="24" y="20" width="1" height="1" fill="white"/><rect x="25" y="20" width="1" height="1" fill="white"/><rect x="26" y="20" width="1" height="1" fill="white"/><rect x="27" y="20" width="1" height="1" fill="white"/><rect x="28" y="20" width="1" height="1" fill="white"/><rect x="29" y="20" width="1" height="1" fill="white"/><rect x="30" y="20" width="1" height="1" fill="white"/><rect x="31" y="20" width="1" height="1" fill="white"/><rect x="32" y="20" width="1" height="1" fill="white"/><rect x="36" y="20" width="1" height="1" fill="white"/><rect x="21" y="21" width="1" height="1" fill="white"/><rect x="22" y="21" width="1" height="1" fill="white"/><rect x="23" y="21" width="1" height="1" fill="white"/><rect x="24" y="21" width="1" height="1" fill="white"/><rect x="25" y="21" width="1" height="1" fill="white"/><rect x="26" y="21" width="1" height="1" fill="white"/><rect x="27" y="21" width="1" height="1" fill="white"/><rect x="28" y="21" width="1" height="1" fill="white"/><rect x="29" y="21" width="1" height="1" fill="white"/><rect x="30" y="21" width="1" height="1" fill="white"/><rect x="31" y="21" width="1" height="1" fill="white"/><rect x="32" y="21" width="1" height="1" fill="white"/><rect x="34" y="21" width="1" height="1" fill="white"/><rect x="35" y="21" width="1" height="1" fill="white"/><rect x="18" y="22" width="1" height="1" fill="white"/><rect x="21" y="22" width="1" height="1" fill="white"/><rect x="22" y="22" width="1" height="1" fill="white"/><rect x="24" y="22" width="1" height="1" fill="white"/><rect x="25" y="22" width="1" height="1" fill="white"/><rect x="27" y="22" width="1" height="1" fill="white"/><rect x="28" y="22" width="1" height="1" fill="white"/><rect x="30" y="22" width="1" height="1" fill="white"/><rect x="34" y="22" width="1" height="1" fill="white"/><rect x="20" y="23" width="1" height="1" fill="white"/><rect x="21" y="23" width="1" height="1" fill="white"/><rect x="22" y="23" width="1" height="1" fill="white"/><rect x="23" y="23" width="1" height="1" fill="white"/><rect x="24" y="23" width="1" height="1" fill="white"/><rect x="26" y="23" width="1" height="1" fill="white"/><rect x="27" y="23" width="1" height="1" fill="white"/><rect x="28" y="23" width="1" height="1" fill="white"/><rect x="33" y="23" width="1" height="1" fill="white"/><rect x="17" y="24" width="1" height="1" fill="white"/><rect x="19" y="24" width="1" height="1" fill="white"/><rect x="20" y="24" width="1" height="1" fill="white"/><rect x="21" y="24" width="1" height="1" fill="white"/><rect x="22" y="24" width="1" height="1" fill="white"/><rect x="23" y="24" width="1" height="1" fill="white"/><rect x="25" y="24" width="1" height="1" fill="white"/><rect x="26" y="24" width="1" height="1" fill="white"/><rect x="27" y="24" width="1" height="1" fill="white"/><rect x="32" y="24" width="1" height="1" fill="white"/><rect x="14" y="25" width="1" height="1" fill="white"/><rect x="15" y="25" width="1" height="1" fill="white"/><rect x="19" y="25" width="1" height="1" fill="white"/><rect x="20" y="25" width="1" height="1" fill="white"/><rect x="21" y="25" width="1" height="1" fill="white"/><rect x="22" y="25" width="1" height="1" fill="white"/><rect x="23" y="25" width="1" height="1" fill="white"/><rect x="24" y="25" width="1" height="1" fill="white"/><rect x="25" y="25" width="1" height="1" fill="white"/><rect x="26" y="25" width="1" height="1" fill="white"/><rect x="27" y="25" width="1" height="1" fill="white"/><rect x="32" y="25" width="1" height="1" fill="white"/><rect x="13" y="26" width="1" height="1" fill="white"/><rect x="18" y="26" width="1" height="1" fill="white"/><rect x="19" y="26" width="1" height="1" fill="white"/><rect x="20" y="26" width="1" height="1" fill="white"/><rect x="22" y="26" width="1" height="1" fill="white"/><rect x="23" y="26" width="1" height="1" fill="white"/><rect x="24" y="26" width="1" height="1" fill="white"/><rect x="25" y="26" width="1" height="1" fill="white"/><rect x="26" y="26" width="1" height="1" fill="white"/><rect x="27" y="26" width="1" height="1" fill="white"/><rect x="31" y="26" width="1" height="1" fill="white"/><rect x="11" y="27" width="1" height="1" fill="white"/><rect x="16" y="27" width="1" height="1" fill="white"/><rect x="17" y="27" width="1" height="1" fill="white"/><rect x="18" y="27" width="1" height="1" fill="white"/><rect x="19" y="27" width="1" height="1" fill="white"/><rect x="21" y="27" width="1" height="1" fill="white"/><rect x="22" y="27" width="1" height="1" fill="white"/><rect x="23" y="27" width="1" height="1" fill="white"/><rect x="24" y="27" width="1" height="1" fill="white"/><rect x="30" y="27" width="1" height="1" fill="white"/><rect x="15" y="28" width="1" height="1" fill="white"/><rect x="16" y="28" width="1" height="1" fill="white"/><rect x="17" y="28" width="1" height="1" fill="white"/><rect x="18" y="28" width="1" height="1" fill="white"/><rect x="19" y="28" width="1" height="1" fill="white"/><rect x="20" y="28" width="1" height="1" fill="white"/><rect x="21" y="28" width="1" height="1" fill="white"/><rect x="22" y="28" width="1" height="1" fill="white"/><rect x="23" y="28" width="1" height="1" fill="white"/><rect x="29" y="28" width="1" height="1" fill="white"/><rect x="14" y="29" width="1" height="1" fill="white"/><rect x="16" y="29" width="1" height="1" fill="white"/><rect x="17" y="29" width="1" height="1" fill="white"/><rect x="18" y="29" width="1" height="1" fill="white"/><rect x="19" y="29" width="1" height="1" fill="white"/><rect x="20" y="29" width="1" height="1" fill="white"/><rect x="24" y="29" width="1" height="1" fill="white"/><rect x="25" y="29" width="1" height="1" fill="white"/><rect x="27" y="29" width="1" height="1" fill="white"/><rect x="28" y="29" width="1" height="1" fill="white"/><rect x="10" y="30" width="1" height="1" fill="white"/><rect x="11" y="30" width="1" height="1" fill="white"/><rect x="12" y="30" width="1" height="1" fill="white"/><rect x="13" y="30" width="1" height="1" fill="white"/><rect x="15" y="30" width="1" height="1" fill="white"/><rect x="16" y="30" width="1" height="1" fill="white"/><rect x="17" y="30" width="1" height="1" fill="white"/><rect x="18" y="30" width="1" height="1" fill="white"/><rect x="19" y="30" width="1" height="1" fill="white"/><rect x="20" y="30" width="1" height="1" fill="white"/><rect x="24" y="30" width="1" height="1" fill="white"/><rect x="25" y="30" width="1" height="1" fill="white"/><rect x="8" y="31" width="1" height="1" fill="white"/><rect x="9" y="31" width="1" height="1" fill="white"/><rect x="10" y="31" width="1" height="1" fill="white"/><rect x="11" y="31" width="1" height="1" fill="white"/><rect x="12" y="31" width="1" height="1" fill="white"/><rect x="13" y="31" width="1" height="1" fill="white"/><rect x="14" y="31" width="1" height="1" fill="white"/><rect x="15" y="31" width="1" height="1" fill="white"/><rect x="16" y="31" width="1" height="1" fill="white"/><rect x="17" y="31" width="1" height="1" fill="white"/><rect x="18" y="31" width="1" height="1" fill="white"/><rect x="19" y="31" width="1" height="1" fill="white"/><rect x="21" y="31" width="1" height="1" fill="white"/><rect x="23" y="31" width="1" height="1" fill="white"/><rect x="24" y="31" width="1" height="1" fill="white"/><rect x="7" y="32" width="1" height="1" fill="white"/><rect x="8" y="32" width="1" height="1" fill="white"/><rect x="9" y="32" width="1" height="1" fill="white"/><rect x="10" y="32" width="1" height="1" fill="white"/><rect x="11" y="32" width="1" height="1" fill="white"/><rect x="12" y="32" width="1" height="1" fill="white"/><rect x="13" y="32" width="1" height="1" fill="white"/><rect x="14" y="32" width="1" height="1" fill="white"/><rect x="15" y="32" width="1" height="1" fill="white"/><rect x="16" y="32" width="1" height="1" fill="white"/><rect x="17" y="32" width="1" height="1" fill="white"/><rect x="18" y="32" width="1" height="1" fill="white"/><rect x="19" y="32" width="1" height="1" fill="white"/><rect x="20" y="32" width="1" height="1" fill="white"/><rect x="26" y="32" width="1" height="1" fill="white"/><rect x="6" y="33" width="1" height="1" fill="white"/><rect x="7" y="33" width="1" height="1" fill="white"/><rect x="8" y="33" width="1" height="1" fill="white"/><rect x="9" y="33" width="1" height="1" fill="white"/><rect x="12" y="33" width="1" height="1" fill="white"/><rect x="13" y="33" width="1" height="1" fill="white"/><rect x="14" y="33" width="1" height="1" fill="white"/><rect x="15" y="33" width="1" height="1" fill="white"/><rect x="16" y="33" width="1" height="1" fill="white"/><rect x="17" y="33" width="1" height="1" fill="white"/><rect x="18" y="33" width="1" height="1" fill="white"/><rect x="20" y="33" width="1" height="1" fill="white"/><rect x="5" y="34" width="1" height="1" fill="white"/><rect x="6" y="34" width="1" height="1" fill="white"/><rect x="7" y="34" width="1" height="1" fill="white"/><rect x="8" y="34" width="1" height="1" fill="white"/><rect x="15" y="34" width="1" height="1" fill="white"/><rect x="16" y="34" width="1" height="1" fill="white"/><rect x="17" y="34" width="1" height="1" fill="white"/><rect x="18" y="34" width="1" height="1" fill="white"/><rect x="21" y="34" width="1" height="1" fill="white"/><rect x="22" y="34" width="1" height="1" fill="white"/><rect x="5" y="35" width="1" height="1" fill="white"/><rect x="6" y="35" width="1" height="1" fill="white"/><rect x="7" y="35" width="1" height="1" fill="white"/><rect x="9" y="35" width="1" height="1" fill="white"/><rect x="10" y="35" width="1" height="1" fill="white"/><rect x="16" y="35" width="1" height="1" fill="white"/><rect x="17" y="35" width="1" height="1" fill="white"/><rect x="18" y="35" width="1" height="1" fill="white"/><rect x="19" y="35" width="1" height="1" fill="white"/><rect x="20" y="35" width="1" height="1" fill="white"/><rect x="22" y="35" width="1" height="1" fill="white"/><rect x="23" y="35" width="1" height="1" fill="white"/><rect x="4" y="36" width="1" height="1" fill="white"/><rect x="5" y="36" width="1" height="1" fill="white"/><rect x="6" y="36" width="1" height="1" fill="white"/><rect x="8" y="36" width="1" height="1" fill="white"/><rect x="9" y="36" width="1" height="1" fill="white"/><rect x="10" y="36" width="1" height="1" fill="white"/><rect x="11" y="36" width="1" height="1" fill="white"/><rect x="16" y="36" width="1" height="1" fill="white"/><rect x="17" y="36" width="1" height="1" fill="white"/><rect x="18" y="36" width="1" height="1" fill="white"/><rect x="21" y="36" width="1" height="1" fill="white"/><rect x="4" y="37" width="1" height="1" fill="white"/><rect x="5" y="37" width="1" height="1" fill="white"/><rect x="6" y="37" width="1" height="1" fill="white"/><rect x="9" y="37" width="1" height="1" fill="white"/><rect x="10" y="37" width="1" height="1" fill="white"/><rect x="11" y="37" width="1" height="1" fill="white"/><rect x="17" y="37" width="1" height="1" fill="white"/><rect x="18" y="37" width="1" height="1" fill="white"/><rect x="19" y="37" width="1" height="1" fill="white"/><rect x="4" y="38" width="1" height="1" fill="white"/><rect x="5" y="38" width="1" height="1" fill="white"/><rect x="6" y="38" width="1" height="1" fill="white"/><rect x="13" y="38" width="1" height="1" fill="white"/><rect x="17" y="38" width="1" height="1" fill="white"/><rect x="18" y="38" width="1" height="1" fill="white"/><rect x="19" y="38" width="1" height="1" fill="white"/><rect x="4" y="39" width="1" height="1" fill="white"/><rect x="5" y="39" width="1" height="1" fill="white"/><rect x="6" y="39" width="1" height="1" fill="white"/><rect x="12" y="39" width="1" height="1" fill="white"/><rect x="13" y="39" width="1" height="1" fill="white"/><rect x="14" y="39" width="1" height="1" fill="white"/><rect x="16" y="39" width="1" height="1" fill="white"/><rect x="17" y="39" width="1" height="1" fill="white"/><rect x="18" y="39" width="1" height="1" fill="white"/><rect x="4" y="40" width="1" height="1" fill="white"/><rect x="5" y="40" width="1" height="1" fill="white"/><rect x="6" y="40" width="1" height="1" fill="white"/><rect x="12" y="40" width="1" height="1" fill="white"/><rect x="13" y="40" width="1" height="1" fill="white"/><rect x="14" y="40" width="1" height="1" fill="white"/><rect x="16" y="40" width="1" height="1" fill="white"/><rect x="17" y="40" width="1" height="1" fill="white"/><rect x="18" y="40" width="1" height="1" fill="white"/><rect x="5" y="41" width="1" height="1" fill="white"/><rect x="6" y="41" width="1" height="1" fill="white"/><rect x="7" y="41" width="1" height="1" fill="white"/><rect x="8" y="41" width="1" height="1" fill="white"/><rect x="13" y="41" width="1" height="1" fill="white"/><rect x="16" y="41" width="1" height="1" fill="white"/><rect x="17" y="41" width="1" height="1" fill="white"/><rect x="18" y="41" width="1" height="1" fill="white"/><rect x="5" y="42" width="1" height="1" fill="white"/><rect x="6" y="42" width="1" height="1" fill="white"/><rect x="7" y="42" width="1" height="1" fill="white"/><rect x="8" y="42" width="1" height="1" fill="white"/><rect x="15" y="42" width="1" height="1" fill="white"/><rect x="16" y="42" width="1" height="1" fill="white"/><rect x="17" y="42" width="1" height="1" fill="white"/><rect x="6" y="43" width="1" height="1" fill="white"/><rect x="7" y="43" width="1" height="1" fill="white"/><rect x="8" y="43" width="1" height="1" fill="white"/><rect x="9" y="43" width="1" height="1" fill="white"/><rect x="10" y="43" width="1" height="1" fill="white"/><rect x="11" y="43" width="1" height="1" fill="white"/><rect x="12" y="43" width="1" height="1" fill="white"/><rect x="13" y="43" width="1" height="1" fill="white"/><rect x="14" y="43" width="1" height="1" fill="white"/><rect x="15" y="43" width="1" height="1" fill="white"/><rect x="16" y="43" width="1" height="1" fill="white"/><rect x="7" y="44" width="1" height="1" fill="white"/><rect x="8" y="44" width="1" height="1" fill="white"/><rect x="9" y="44" width="1" height="1" fill="white"/><rect x="10" y="44" width="1" height="1" fill="white"/><rect x="11" y="44" width="1" height="1" fill="white"/><rect x="12" y="44" width="1" height="1" fill="white"/><rect x="13" y="44" width="1" height="1" fill="white"/><rect x="14" y="44" width="1" height="1" fill="white"/><rect x="15" y="44" width="1" height="1" fill="white"/><rect x="9" y="45" width="1" height="1" fill="white"/><rect x="10" y="45" width="1" height="1" fill="white"/><rect x="11" y="45" width="1" height="1" fill="white"/><rect x="12" y="45" width="1" height="1" fill="white"/><rect x="13" y="45" width="1" height="1" fill="white"/>
</svg>